<svg width="170" height="39" xmlns="http://www.w3.org/2000/svg" xmlns:xlink="http://www.w3.org/1999/xlink"><defs><path id="a" d="M17.42 38.25H.033V.483H34.808V38.25z"/><path id="c" d="M17.42 38.25H.033V.483H34.808V38.25z"/></defs><g fill="none" fill-rule="evenodd"><mask id="b" fill="#fff"><use xlink:href="#a"/></mask><path d="M33.75 15.354c-.006-.113-.09-.19-.1-.328.052-.013.077.036.104.077-.01.01.003.029-.025.029.013.032.049.01.062.04-.027-.003-.008.042.005.035 0 .027-.031.006-.042.007.055.044.074.09.112.184-.051.017-.084-.017-.116-.044zM14.335 8.682c-.03-.11-.128-.166-.167-.299.048-.024.082.018.118.053-.008.011.008.028-.018.033.02.029.05 0 .068.026-.026.003.002.043.012.033.007.027-.028.012-.038.016.062.032.092.072.149.156-.047.028-.087.002-.124-.018zm3.173.417c-.03-.109-.128-.165-.167-.298.048-.025.082.018.118.053-.008.011.008.027-.018.033.02.028.05 0 .068.025-.026.003.001.044.013.034.006.026-.028.012-.039.015.063.032.092.072.149.157-.047.027-.086 0-.124-.019zM31.05 29.797c0 .027-.008.045-.014.014.016-.02 0-.064.006-.09-.01-.03-.028-.047-.026-.114-.004-.028-.006.007-.011-.014-.005-.023-.012-.053-.013-.073-.028-.04-.044-.196-.067-.253a.342.342 0 0 0-.04-.13 3.937 3.937 0 0 0-.12-.498.208.208 0 0 1 .005-.033c-.011.008-.021-.046-.038-.088 0-.048-.012-.128-.027-.139-.007-.08-.029-.165-.048-.17a.138.138 0 0 1-.003-.05c-.007-.013-.01-.028-.013.002-.004-.035-.007-.032-.014-.075.003-.012.007 0 .01-.023-.014-.066-.028-.123-.03-.192-.02-.066-.035-.012-.052-.077a.25.25 0 0 1 .01-.037c-.007-.015-.011.003-.016.002l-.003-.041c-.007-.02-.013.012-.018.012-.004-.023-.004-.04-.01-.065-.001-.026.005-.047 0-.074-.009.012-.008-.018-.012-.048-.01.006 0 .07-.012.072a.633.633 0 0 1-.02-.101c.01-.004.022.016.023-.04.01.024.017.053.02.096.008-.023.017.027.026.052.003-.013 0-.03.002-.043-.021-.02-.028-.134-.046-.123-.005-.02.007-.031.002-.066-.006.009-.012-.033-.02-.023-.001-.03.008 0 .011-.01-.004-.047-.018-.03-.028-.047a.398.398 0 0 0-.006-.131c-.007-.014-.004.032-.009.02-.01-.034-.019-.026-.03-.092-.005.009-.013.043-.019.055-.009-.018-.006-.048-.01-.078.007.008.006-.011.012-.034a.422.422 0 0 1 .037.096c.009-.043.02-.022.031-.02 0-.015-.006-.036.001-.049-.007.003-.012-.038-.015.007a.26.26 0 0 1-.016-.064c.004-.014.008.012.01-.002 0-.011-.009-.023-.008-.057-.016.004-.032-.031-.049-.025-.008-.044-.008-.06-.021-.117.008-.034.018 0 .026-.018.002-.02-.003-.046-.009-.074.021-.063.033.033.046.102.013.073.036.145.05.226.01.064.015.131.028.148-.004.012.005.033.002.046.008.024.014.014.02.046 0 .014-.004.029-.006.038.007.035.014.022.02.016.01.05.033.109.024.156.002.014.006.008.008-.005.03.114.062.326.097.425 0 .024.007.051.005.073.012.039.042.124.04.18.03.076.064.225.083.353.015.046.042.118.043.189.042.106.079.355.113.476a.068.068 0 0 0-.001.03c-.012-.011-.016-.046-.027-.06.027.133.048.214.079.331.006.009.01-.035.018.002-.004.015-.007.006-.01.01.026.194.048.226.083.372 0 .013.002.026 0 .038-.018-.027-.035-.04-.054-.122zM16.216 12.125c.007.026.006.046-.01.017.01-.024-.019-.06-.02-.087-.019-.026-.041-.036-.06-.101-.011-.025-.003.008-.014-.01-.011-.02-.027-.048-.034-.066-.038-.03-.1-.175-.139-.222a.32.32 0 0 0-.077-.112 3.76 3.76 0 0 0-.261-.44c-.002-.013-.005-.025-.005-.034-.009.012-.034-.037-.062-.071-.014-.047-.05-.12-.067-.125-.031-.074-.076-.15-.097-.148a.124.124 0 0 1-.017-.047c-.01-.01-.018-.023-.012.006-.014-.032-.016-.03-.036-.067 0-.013.007-.003.002-.025-.032-.06-.062-.11-.085-.175-.037-.058-.037 0-.072-.059l-.001-.037c-.01-.013-.01.005-.015.005l-.015-.037c-.012-.017-.008.015-.014.016-.01-.02-.015-.037-.029-.058-.009-.024-.008-.047-.02-.071-.006.014-.014-.015-.026-.042-.01.008.02.066.008.072a.722.722 0 0 1-.048-.091c.009-.007.025.01.01-.044.016.02.032.045.047.086.001-.025.025.02.041.041-.001-.013-.008-.029-.012-.042-.026-.013-.065-.119-.08-.104-.01-.018-.002-.031-.016-.063-.004.01-.022-.027-.026-.015-.011-.028.008-.003.007-.014-.018-.043-.027-.024-.04-.035a.425.425 0 0 0-.045-.125c-.011-.011.005.032-.003.023-.02-.03-.025-.02-.056-.08-.002.01 0 .046-.002.059-.014-.015-.02-.044-.033-.071.01.005.003-.014.001-.037.021.018.042.047.065.08-.005-.043.012-.027.023-.028-.004-.015-.016-.032-.013-.047-.005.005-.022-.031-.013.012a.296.296 0 0 1-.034-.057c0-.015.011.01.01-.005-.004-.011-.016-.02-.026-.052-.013.008-.039-.02-.053-.01-.02-.039-.025-.053-.055-.105-.003-.035.017-.004.02-.025a.276.276 0 0 0-.03-.068c0-.066.04.022.073.083.033.067.077.13.115.202.028.058.052.121.07.133 0 .013.015.03.016.043.014.02.017.01.033.038a.127.127 0 0 1 .004.039c.018.031.02.016.025.009.025.045.063.094.069.141.006.013.008.006.006-.007.063.1.156.293.219.378.007.022.021.046.026.067.023.033.076.107.09.16.051.064.13.196.185.313.028.039.076.1.096.167.073.09.181.316.25.421 0 .01.003.02.007.029-.014-.006-.029-.039-.043-.048.066.118.11.19.173.292.009.006 0-.037.018-.004.002.015-.005.008-.006.013.083.177.113.201.188.33.005.013.01.025.012.037-.024-.021-.045-.029-.087-.101zm12.9 20.335c-.079-.17-.103-.36-.158-.53-.127-.207-.1-.421-.197-.638-.015-.032.007-.018.002-.037-.082-.226-.102-.418-.17-.615-.026-.074-.092-.17-.044-.2-.014-.053-.05-.103-.06-.15-.015-.081.008-.133-.016-.213-.08-.256-.107-.459-.147-.678-.008-.037-.033-.085-.04-.12-.046-.208-.043-.363-.103-.589.008-.001.004-.016.016-.013-.058-.105-.02-.148-.069-.245-.013-.03.012-.013.013-.026-.046-.065-.04-.107-.049-.165-.007-.038-.05-.102-.057-.147a1.611 1.611 0 0 1-.057-.353c-.039-.052-.038-.098-.044-.139.08.102.05.175.123.27-.021.066.078.236.034.259.01.021.036.036.043.057.013.038-.023.016-.02.045.05.07.054.128.03.151.018.031.043.058.062.09.005.13.056.273.088.422-.008 0-.027-.009-.03-.001 0 .02.03.027.04.043.015.098.03.145.055.246-.012-.007-.012-.001-.026-.01.009.028.035.048.043.077-.016.093.07.284.062.386.022.04.04.098.01.099.037.072.074.16.041.18.094.197.105.406.157.586-.018-.01-.018 0-.04-.017.027.055.104.126.08.163.03.044.014.07.034.124.004.017-.008.006-.018 0 .015.03.043.055.055.086-.006.168.15.447.16.652.009.024.031.043.04.066.078.263.06.464.173.757.011.025-.06-.003-.054.014.019.04.082.082.099.125-.008-.003-.053-.007-.06-.012zm-11.75-19.221c-.124-.14-.276-.294-.377-.44-.181-.162-.253-.364-.41-.544-.023-.026.003-.018-.007-.035-.144-.193-.218-.37-.34-.54-.046-.063-.137-.136-.1-.178-.029-.047-.078-.085-.101-.128-.038-.072-.03-.128-.076-.198-.15-.222-.234-.408-.336-.607-.018-.033-.056-.071-.073-.104-.103-.186-.144-.335-.267-.533.007-.004-.002-.017.01-.017-.084-.084-.06-.137-.135-.215-.02-.024.008-.016.005-.029-.062-.05-.07-.091-.094-.143-.018-.034-.077-.084-.097-.125a1.58 1.58 0 0 1-.156-.321c-.052-.04-.064-.083-.082-.12.106.074.098.153.195.222-.001.07.143.204.107.239.015.017.044.023.058.042.023.032-.018.022-.006.048.067.053.087.107.07.137.028.025.06.043.087.068.042.123.132.245.205.378-.007.003-.028 0-.03.008.007.02.038.017.052.03.042.088.07.129.124.219-.015-.003-.013.002-.029-.002.017.024.047.037.064.062.012.093.149.25.17.351.033.032.067.082.039.09.055.06.115.134.09.163.146.161.217.359.318.515-.02-.004-.017.005-.043-.004.042.044.137.091.123.133.043.033.035.062.07.109.008.014-.007.007-.018.005.023.024.057.04.078.066.042.162.27.385.34.578.015.021.042.032.057.052.15.23.264.404.457.653.018.02-.02.002-.01.017.029.034.064.066.092.102-.007 0-.015-.002-.023-.004zm12.681 12.776c0-.026.008-.045.015-.013-.016.02 0 .063-.007.088.01.033.029.048.027.115.004.028.007-.007.012.014.004.023.012.053.013.073.028.04.044.197.068.253.01.071.03.109.042.13.028.163.08.376.12.497a.173.173 0 0 1-.004.034c.011-.009.02.045.038.086 0 .05.013.13.027.14.009.08.03.165.05.17.005.018.005.035.002.05.008.013.012.027.014-.003.004.035.006.033.015.075-.004.013-.008 0-.01.023.014.066.027.124.031.194.018.065.035.01.052.075a.46.46 0 0 1-.01.037c.007.014.011-.003.017-.001 0 .014 0 .026.002.04.007.02.012-.01.018-.012.005.024.004.04.01.065.002.026-.005.047 0 .074.009-.012.008.018.013.047.01-.005 0-.069.012-.07a.674.674 0 0 1 .02.1c-.01.004-.022-.016-.023.04a.336.336 0 0 1-.02-.096c-.008.023-.018-.026-.027-.051-.003.012 0 .03-.001.043.021.02.028.133.046.123.005.02-.007.03-.002.065.006-.009.013.032.02.023.002.03-.008 0-.01.01.004.046.018.03.027.046a.417.417 0 0 0 .008.132c.006.015.003-.032.008-.02.01.034.019.026.03.092.006-.009.013-.044.02-.055.009.018.005.047.011.077-.008-.007-.007.012-.013.035a.478.478 0 0 1-.037-.096c-.009.043-.02.022-.03.02-.002.015.005.036-.002.05.007-.004.012.035.015-.008a.31.31 0 0 1 .017.063c-.005.015-.008-.01-.012.003 0 .012.01.022.01.057.016-.004.031.031.049.024.008.044.007.06.022.118-.008.034-.018-.001-.027.018a.282.282 0 0 0 .01.074c-.021.062-.033-.033-.047-.102-.013-.073-.036-.145-.051-.226-.01-.064-.015-.131-.028-.148.003-.012-.006-.033-.003-.045-.008-.025-.014-.014-.02-.047 0-.014.004-.028.007-.038-.008-.035-.015-.021-.022-.016-.01-.05-.032-.108-.024-.155-.003-.015-.006-.008-.008.005-.031-.114-.063-.326-.1-.426 0-.023-.006-.05-.005-.072-.011-.038-.041-.123-.04-.179a1.987 1.987 0 0 1-.085-.353c-.015-.046-.042-.119-.043-.19-.043-.106-.081-.354-.116-.474a.06.06 0 0 0 .001-.03c.012.01.017.045.028.059a5.815 5.815 0 0 0-.081-.332c-.006-.007-.01.036-.019 0 .004-.015.008-.006.01-.011-.026-.194-.048-.225-.083-.371 0-.013-.003-.026 0-.038.017.026.034.04.053.121zM15.555 6.017c-.01-.026-.009-.046.009-.018-.008.024.022.059.025.085.02.026.043.035.065.098.014.024.003-.009.015.009.013.02.03.045.039.063.04.028.11.169.153.213a.336.336 0 0 0 .083.107c.084.143.207.325.288.423l.007.034c.008-.012.036.034.066.067.017.046.058.116.075.12.036.072.086.144.105.141a.118.118 0 0 1 .02.047c.012.01.021.022.012-.007.017.031.018.028.041.065.001.013-.007.003-.001.025.036.057.069.106.096.17.04.054.036-.003.076.053a.44.44 0 0 1 .003.037c.011.012.01-.006.015-.007.007.013.01.025.017.038.013.016.007-.016.012-.018.013.02.018.036.033.057.01.023.011.046.025.07.004-.015.014.013.028.04.009-.01-.024-.065-.013-.072.02.026.033.049.054.088-.008.007-.026-.008-.007.045a.332.332 0 0 1-.052-.083c0 .025-.026-.018-.044-.038.002.012.01.027.014.04.027.011.073.115.087.099.012.017.004.031.02.062.004-.01.024.026.027.014.013.027-.007.003-.006.014.02.041.028.021.042.033a.407.407 0 0 0 .053.12c.012.012-.008-.03.001-.021.022.028.027.018.06.076.002-.011-.002-.046 0-.06.014.014.022.043.037.069-.01-.004-.002.014 0 .037a.465.465 0 0 1-.068-.076c.006.043-.011.028-.022.03.004.014.018.03.016.046.005-.006.024.03.012-.012.01.01.023.026.037.053.001.016-.011-.008-.009.007.004.01.017.018.028.05.014-.01.041.018.055.005.023.039.028.053.062.103.004.034-.018.005-.02.025.007.021.02.043.036.067.002.066-.042-.02-.079-.079-.038-.064-.085-.124-.127-.194-.033-.055-.06-.117-.079-.128 0-.013-.016-.03-.018-.042-.016-.02-.018-.008-.036-.036-.005-.013-.006-.028-.006-.039-.02-.03-.021-.014-.026-.006-.027-.044-.068-.09-.077-.137-.007-.013-.008-.006-.006.007-.069-.096-.173-.283-.242-.363-.008-.022-.024-.045-.03-.066-.024-.032-.082-.101-.1-.154a1.94 1.94 0 0 1-.204-.3c-.03-.038-.081-.096-.106-.161-.078-.086-.2-.304-.275-.405 0-.01-.005-.02-.01-.028.015.005.032.037.047.045a6.878 6.878 0 0 0-.192-.281c-.008-.005.003.037-.018.005-.001-.015.006-.008.006-.013-.093-.171-.125-.194-.208-.318-.005-.012-.012-.023-.014-.036.026.02.046.026.093.096zm.41 4.614c-.037-.06-.09-.085-.121-.146-.053-.095-.06-.205-.12-.294-.19-.268-.314-.535-.454-.808-.025-.044-.068-.08-.092-.125-.139-.247-.215-.482-.375-.736.006-.013-.006-.03.004-.042-.094-.075-.088-.195-.174-.272-.023-.025.002-.036-.004-.057-.068-.031-.084-.106-.12-.176-.024-.048-.089-.083-.118-.14a2.536 2.536 0 0 1-.221-.45c-.055-.026-.078-.095-.103-.148.111.04.126.194.229.232.02.132.177.245.156.342.018.017.045.002.062.023.029.039-.008.06.008.095a.185.185 0 0 1 .096.189c.032.018.065.021.093.044.07.19.182.33.281.507-.006.013-.023.026-.023.042.009.03.038-.004.052.008.06.123.096.176.166.288-.013.008-.01.02-.024.024.021.03.049.026.07.058.037.16.197.323.244.489.036.03.08.09.056.134.065.057.137.136.123.213.17.162.284.462.414.655-.018.011-.014.027-.039.033.048.044.143.04.143.133.045.02.046.083.089.136.01.015-.003.02-.013.027.026.022.058.02.084.05.08.26.338.458.452.752.017.022.043.017.062.042.19.282.338.503.571.78.02.021-.017.024-.005.04.036.038.075.063.11.106-.01.004-.016.01-.023.013-.145-.142-.317-.286-.446-.46-.198-.13-.316-.437-.5-.625-.027-.024-.003-.036-.016-.06-.177-.22-.288-.482-.439-.68-.057-.076-.155-.127-.135-.236zM28.52 22.298s-.073.121-.15.206c-.077.085-.118.2-.118.2a.626.626 0 0 0-.071.158c-.084.127.033-.048-.028.076l-.017.056c-.023.05-.077.202-.084.257-.021.022-.056.056-.055.106-.004.007-.008.084-.01.092-.04.097-.006.175-.023.297-.006.055-.03.11-.018.156a.574.574 0 0 0 .005.308c-.018.033-.059.119-.055.162.009.157-.031.299 0 .451l.013.058s-.002.13-.01.146c-.01.013-.041-.006-.04-.02 0-.014-.03-.185-.03-.185l-.028-.107.02-.075c-.029-.15.037-.348.027-.508-.003-.04-.012-.072.006-.104-.03-.086-.007-.227.019-.308-.011-.047.012-.102.019-.155.017-.134.042-.27.087-.369a.14.14 0 0 1 .037-.101c.006-.054.04-.11.063-.159v-.026c.06-.126.03-.119.114-.247.002-.034.033-.065.052-.098l.062-.04.051-.118.081-.086.082-.104.04-.088.134-.037-.175.206zm4.99-6.702a.631.631 0 0 0-.057-.204c-.009-.169-.03-.083-.083-.269l-.034-.076a2.164 2.164 0 0 0-.152-.352c0-.042.003-.11-.042-.163-.005-.01-.072-.099-.076-.11-.05-.138-.156-.197-.25-.343-.045-.066-.072-.146-.126-.186a.899.899 0 0 0-.288-.332c-.013-.053-.05-.18-.093-.225-.155-.164-.246-.353-.416-.495l-.067-.05s-.118-.147-.123-.169c-.004-.021.045-.029.059-.013.012.015.198.177.198.177l.126.095.048.1c.168.14.284.41.44.576.041.043.08.07.091.121.108.068.217.242.264.352.054.042.082.121.125.186.105.16.207.332.252.476a.215.215 0 0 1 .056.144c.044.063.062.153.085.226l.024.03c.055.187.153.372.16.541.03.041.018.084.025.128l-.05.06-.096-.225zm-.037-.925a.635.635 0 0 0-.08-.196c-.027-.166-.038-.078-.112-.257l-.042-.072a2.197 2.197 0 0 0-.19-.333c-.005-.041-.01-.11-.061-.157-.005-.01-.082-.09-.088-.101-.065-.131-.177-.178-.287-.312-.052-.061-.087-.137-.146-.171a.901.901 0 0 0-.324-.298c-.018-.05-.07-.173-.117-.212-.173-.146-.284-.324-.47-.444l-.072-.044s-.133-.131-.14-.153c-.006-.02.041-.034.056-.019.014.013.218.153.218.153l.135.08.06.093c.182.12.327.376.502.523.045.039.086.061.104.11.115.055.241.217.301.32.059.035.095.112.145.171.123.148.242.306.305.445.05.047.065.092.071.135.05.059.079.146.11.216l.027.027c.076.18.193.353.22.52.036.037.028.081.04.124l-.043.064-.122-.212zm-4.904 6.953s-.098.128-.196.192c-.097.067-.16.208-.16.208a.631.631 0 0 0-.1.186c-.11.125-.036.078-.127.25l-.03.077c-.035.07-.12.282-.135.36-.03.03-.078.075-.083.146-.004.01-.018.12-.022.132-.06.133-.025.25-.06.42-.013.078-.05.155-.039.222a.906.906 0 0 0-.025.44c-.027.047-.088.164-.089.226-.004.226.007.425.03.645l.013.084s-.017.187-.03.207c-.012.017-.051-.012-.05-.032.002-.02-.019-.267-.019-.267l-.025-.155.035-.105c-.023-.218.006-.494.01-.722 0-.06-.009-.106.018-.15-.03-.124.014-.325.056-.437-.01-.068.026-.144.04-.22.037-.189.083-.382.15-.518.006-.07.03-.11.06-.142.013-.076.062-.153.097-.222l.004-.038c.09-.172.15-.374.26-.5.008-.05.047-.073.072-.109l.077-.007.071-.14.104-.066.105-.09.058-.101.153.055-.223.171zM11.353 5.133c.056.073.151.147.207.22.064.084.086.168.15.251.062.083.164.166.226.25.088.118.136.236.223.356.288.392.572.791.845 1.198.07.131.14.261.224.376.16.298.336.58.507.867.292.55.581 1.103.92 1.606v.026c.23.34.43.703.662 1.038.273.44.551.875.857 1.282.309.444.666.84 1.062 1.197h.024c.16.187.382.309.585.452.017.004.005-.022.025-.017-.003.02.011.022.007.045.338.216.716.394 1.105.56.02.004.03-.004.044-.007.009.046.079.051.12.045.006.012.016.02.02.032.346.115.705.243 1.092.3.151.05.307.075.457.09.05.026.121.036.166.018.002.016.018.016.025.026.171.012.342.065.515.044.12.037.349.046.5.026.036.017.085.011.122 0 .048.032.122 0 .185 0 .046.001.09.02.139.02.123 0 .248-.017.362-.033.06.038.124-.016.165.019-.036.018-.086.02-.107.038.06.017.108-.042.164-.012.113-.054.272-.062.444-.07.057-.002.086-.019.128-.026.013-.002.03.007.044.006.223-.018.52-.048.71-.115.13.002.283-.043.383-.069.09-.024.19-.03.278-.052.162-.04.323-.078.483-.122.064-.014.122-.049.185-.063.077-.016.166-.015.242-.044a1 1 0 0 1 .145-.039c.36-.045.731-.134 1.073-.164.304-.027.427-.083.617-.107.225-.03.336-.033.502-.036.308 0 .607.066.902.111-.002.012.008.012.013.019.073-.017.124.055.195.037.155.062.262.146.423.19.007.002.014.006.02.009a.462.462 0 0 0 .115.071l.024.015c-.013.023-.007.049.038.063.072.023.14.057.201.101.185.19.32.435.476.655a.754.754 0 0 0 .048.113c.11.28.161.255.226.468.081.27.11.39.127.556.015.265.046.46.015.794-.013.155.001.318-.015.46-.015.126-.066.262-.08.365-.032.245-.145.408-.142.413 0 0-.033.063-.14.21-.113.154-.35.313-.35.313-.067.048-.495.447-.718.543-.064.03-.183.187-.199.078-.146.141-.236.28-.416.366-.043.034-.165.186-.207.221-.098.083-.308.338-.441.467-.02-.006-.008.02-.032.012-.033.038-.063.079-.102.108-.135.156-.234.337-.355.503-.028.037-.074.064-.076.115-.125.137-.175.344-.267.522v.039c-.036.07-.088.152-.096.229a.19.19 0 0 0-.056.147c-.07.14-.106.34-.128.53-.01.078-.046.156-.026.222a7.679 7.679 0 0 0-.062 1.348 10.393 10.393 0 0 0 .051.776c.058.27.118.538.18.804.048.204.137.407.186.607.025.102.01.203.036.303.042.168.123.335.165.5.038.148.036.295.073.442.04.158.119.314.158.47.054.215.066.429.116.638.034.146.106.29.138.432.036.163.03.324.063.484.037.189.11.375.14.558l.103.16c.01.016.01.038.016.055-.005.013-.016.014-.018.03.049.209.075.481.177.663-.025.14.056.293.116.408.076.211.078.417.161.62.002.05.01.098.03.15.003.01.01.017.017.023a.367.367 0 0 0-.026.058.074.074 0 0 0 .006.066c0 .054.02.106.055.16l.002.028c-.007.009-.013.016-.015.023-.023.141-.009.284-.023.427-.006.073.018.134.036.198a.081.081 0 0 0-.027.04 7.297 7.297 0 0 0-.065.307.672.672 0 0 0-.074.186c-.004.016.01.027.034.037a.228.228 0 0 0-.005.023v.004c-.032.011-.058.027-.063.053-.034.14-.082.28-.128.42a6.435 6.435 0 0 0-.15.35c-.001.002 0 .004-.002.007l-.003.008c-.039.01-.031.035-.061.055.01.03-.027.06-.045.075-.007.015.009.015 0 .033-.1.116-.102.11-.174.265-.055.05-.165.142-.185.214-.031-.021-.045.026-.065.04.022.001.03.01.034.026-.015.021-.035.074-.084.07-.018.011.013.018 0 .044-.024.013-.057.008-.066.04.004.017-.093.098-.091.116a3.328 3.328 0 0 1-.205.131c-.01.056-.058.057-.087.083.029.005-.095.038-.097.066-.07.054-.059.083-.162.09-.096.065-.064.111-.168.163-.002.078-.09.1-.167.095-.019.064-.1.044-.142.078.08.065.32.027.541-.013-.035.012.237-.047-.234.142-.012.003-.022-.02-.026.005-.004.021.027.018.018.041-.017.014-.024.043-.047.05-.019-.022-.064-.013-.067.014-.005.015.029 0 .015.023-.007.017-.396.16-.398.185.044-.025.129-.008.176-.01.038-.061.298-.058.351-.097-.024-.026.082-.016.057-.038.038-.006.083-.044.107-.069.072.029.043-.109.083-.013-.004.016.048-.07.044-.052.057-.003.344-.29.405-.275-.008.03-.33.292-.34.324-.057.035-.125.057-.156.127.027.038-.253.178-.21.218.034-.03.488-.194.773-.392-.026.157-.391.307-.394.34-.01.008-.027.009-.04.013-.03.078-.086.117-.122.185.007.029.027.05.022.089l.051.009c.035-.06.108-.066.164-.095-.003.036.03.033.008.072.036-.021.121-.076.177-.07.004-.02-.012-.024-.011-.041.012-.02.038-.028.048-.049.008-.002.019-.003.027-.008.103-.047.206-.096.301-.16.046-.033.047-.079.012-.11.017-.026.038-.022.098-.024.01-.046.235-.11.237-.19a.629.629 0 0 1 .11-.033l.007-.043c.041-.009.076-.024.093-.046a.745.745 0 0 1 .04-.045.131.131 0 0 0 .109-.108c.062-.056.123-.109.18-.17a.079.079 0 0 0 .015-.03c.02-.02.034-.046.024-.064.012 0 .012.009.024.009a.364.364 0 0 1 .113-.128c.022.006.024.016.039 0 .011-.047-.029-.019-.04-.032.032-.032.064-.093.105-.086.01-.023-.02-.03.003-.044.02-.006.037.031.043 0 0-.019-.032-.017-.026-.043.053.008.038-.078.09-.067.008-.018-.008-.02.002-.039.013.006.015-.01.033 0 .059-.13.182-.17.228-.318.054-.016.01-.094.03-.142.024-.002.026.015.038.007a.701.701 0 0 0 .12-.2c.007.009-.005 0 .023-.006.046-.05.035-.013.068-.079a.285.285 0 0 0 .063-.062c.063-.07.023-.109.08-.176-.033-.068.084-.046.066-.166.062.009.106-.126.088-.175.116 0 .085-.115.113-.19l.043-.05c.007-.018.059-.058.062-.074.077-.04.014-.062.082-.12.016.03.01-.09.038-.072.013-.015.008-.035.031-.044.016.003-.006-.037.003-.044.03-.036.036-.103.069-.137.063.041.017-.063.035-.098-.007-.019-.03.01-.035-.012-.002-.02.013-.017.005-.03.008-.007.018-.013.025-.023l.017-.034c.01-.003.018-.006.023-.017l-.011-.002c.117-.212.052-.174.123-.405a.086.086 0 0 0-.034-.101c.093-.192.16-.092.177-.306 0-.011.067-.19.057-.196.005-.027.06-.145.066-.175.034 0 .06-.155.057-.18.038-.043.022-.11.019-.132-.028-.068.068-.135.037-.2.026-.038.018-.078.048-.123a.544.544 0 0 1 .047-.265c-.054-.196.03-.103.01-.314.022.02.017-.157.038-.162-.01-.082.031-.172.009-.246l.025-.155c.025-.207.042-.388.035-.469a14.333 14.333 0 0 0-.046-.481c-.02-.18-.084-.364-.113-.551-.018-.122.001-.243-.02-.368a14.452 14.452 0 0 0-.09-.464c-.026-.123-.093-.249-.123-.374-.042-.177-.046-.354-.09-.532l-.163-.65c-.056-.225-.11-.447-.16-.666-.02-.082.003-.163-.015-.244-.036-.164-.108-.327-.137-.486-.03-.165-.016-.327-.037-.485-.024-.188-.08-.372-.087-.547a3.851 3.851 0 0 1 .015-.537 2.21 2.21 0 0 1 .162-.651c.079-.183.28-.406.41-.536.128-.13.274-.248.51-.308.026-.01.052-.022.08-.035.046-.018-.107-.032-.06-.044l.003-.01c.005.002.008.005.01.007a.584.584 0 0 1 .05-.01c.06-.035.134-.057.182-.105.2-.084.36-.21.546-.312.013-.01.011-.035.025-.044.02-.011.031.002.045-.007.276-.188.548-.381.8-.593.01-.019-.004-.02.007-.037.077-.029.108-.104.178-.14.013-.03.03-.057.044-.083a.166.166 0 0 0 .096-.103c.118-.07.167-.215.272-.3-.003.013.009.04-.012.032-.03.017-.039.063-.039.09-.016.017-.06.04-.037.078.038-.016.06-.05.057-.11.016-.02.038-.035.038-.07.012-.007.024-.018.039-.026.002-.028.063-.117.057-.156.103-.188.214-.31.316-.52.102-.21.157-.43.228-.657.015-.048.049-.11.064-.146.033-.072.053-.18.083-.28.026-.088.08-.17.063-.241.048-.038.037-.094.052-.148.021-.088.055-.177.07-.274.05-.371.091-.397.088-.81v-.185c0-.095-.016-.196-.02-.293-.004-.081.013-.161.008-.242a8.976 8.976 0 0 0-.104-.806 7.114 7.114 0 0 0-.149-.658c-.018-.067-.077-.133-.098-.199-.039-.126-.043-.249-.09-.369a5.319 5.319 0 0 0-.205-.457c-.036-.072-.113-.143-.151-.212-.034-.062-.029-.123-.064-.183l-.084-.143a13.399 13.399 0 0 0-.185-.3c-.001-.035-.06-.052-.078-.07-.076-.154-.135-.284-.234-.414-.09-.121-.181-.242-.275-.36-.044-.056-.05-.112-.095-.167a4.886 4.886 0 0 0-.73-.69.41.41 0 0 0-.183-.141c-.041-.062-.123-.084-.172-.14-.048 0-.065-.034-.089-.052-.125-.083-.069-.14-.208-.209a9.49 9.49 0 0 0-1.244-.503c-.017-.001-.031-.001-.039.006-.008-.034-.049-.021-.075-.02-.01-.006-.014-.016-.02-.026-.266-.063-.519-.143-.814-.153-.572-.108-1.01-.05-1.591.011l-.23.024c-.079.008-.162.015-.249.022-.39.03-.387.007-.387.007l-.826.18-.586.106-.463.086c-.227.043-.449.085-.615.12-.249.051-.523.11-.737.178a2.4 2.4 0 0 0-.165.064s-.073-.008-.108 0a7.192 7.192 0 0 1-.743.14c-.154.023-.313.024-.482.031a6.81 6.81 0 0 1-.921 0c-.06-.004-.12.001-.18-.005-.008-.002-.008-.017-.018-.02-.027-.008-.07.001-.103-.005-.112-.029-.233-.058-.341-.084-.025-.006-.053.001-.076-.006-.016-.004-.023-.021-.038-.026-.083-.023-.175-.023-.255-.058-.016-.006-.024-.02-.038-.025-.054-.019-.14-.03-.171-.057-.013-.011-.017-.001-.032 0-.022-.043-.091-.053-.133-.057-.084-.094-.24-.112-.33-.199-.015 0-.02-.01-.039-.005-.027-.076-.115-.088-.146-.16-.016.003-.014-.011-.031-.006-.167-.197-.337-.39-.497-.593.003-.015-.011-.013-.006-.032-.083-.06-.133-.154-.196-.235-.01-.009-.031-.005-.04-.012.012-.064-.05-.106-.082-.148-.056-.08-.107-.167-.177-.236 0-.014-.012-.02-.007-.038-.16-.147-.241-.373-.4-.522-.036-.123-.148-.17-.183-.294-.036-.02-.06-.05-.09-.077-.002-.02-.01-.036-.006-.062-.094-.135-.212-.242-.279-.402-.054-.03-.073-.098-.121-.134a4.07 4.07 0 0 0-.394-.606c.007-.07-.068-.115-.095-.172-.025-.004-.01.028-.038.02-.004-.032.01-.04.013-.065-.06-.082-.109-.202-.192-.24a.14.14 0 0 0 .007-.06.802.802 0 0 0-.146-.184c-.008-.043-.036-.065-.063-.09-.016-.057-.043-.105-.09-.134-.046-.11-.125-.188-.19-.28.008 0 .008-.01.008-.018-.015-.015-.037-.02-.047-.04-.153-.268-.353-.494-.52-.75-.014-.013-.03-.021-.044-.034a8.957 8.957 0 0 0-.741-.895l-.177-.15a4.437 4.437 0 0 0-.52-.522.322.322 0 0 0-.115-.115 8.038 8.038 0 0 0-.66-.618c0-.01-.001-.02-.007-.026-.063-.025-.088-.09-.16-.108-.01-.044-.06-.048-.076-.09a.043.043 0 0 0-.03-.006c-.1-.109-.234-.182-.338-.287h-.037a.424.424 0 0 0-.204-.146c-.01-.01-.004-.03-.013-.039-.155-.078-.255-.21-.419-.28-.28-.241-.656-.382-.99-.567-.18-.054-.309-.158-.489-.21a2.154 2.154 0 0 0-.162-.082l.008-.012a.065.065 0 0 1-.018.007 1.7 1.7 0 0 0-.175-.074c-.002.003-.006.003-.013.002l-.01-.015a.24.24 0 0 1-.061-.044c-.038-.016-.077-.017-.114-.034-.015-.017 0-.03-.015-.048-.05.01-.094-.018-.137-.049a.287.287 0 0 1-.17-.015c-.012-.02.02-.03.036-.044-.078-.069-.17-.054-.246-.127-.035.025-.065.02-.086-.017.01-.007.019-.002.029-.01C9.357.876 9.322.856 9.276.9 9.213.842 9.143.913 9.09.876l.03-.021a.355.355 0 0 1-.184-.083C8.883.746 8.826.761 8.778.71c-.056.027-.168.042-.154-.046-.018-.014-.044.02-.059-.018-.03.02-.028.018-.056.04-.06-.037-.136.018-.19-.059-.005-.007.005-.013.015-.02-.04-.042-.105-.07-.142-.026C8.155.566 8.123.53 8.076.573 7.95.5 7.799.57 7.67.501c-.024.01-.001.027-.012.037C7.614.495 7.515.51 7.434.483c.003.011.004.02.002.029-.008.02.038.005.05.032.001.018 0 .035.008.052.039.012.077.029.12.012.012.018.005.03.004.046-.025-.003-.055.018-.079.007.01-.013.033.005.015-.021a.408.408 0 0 0-.183.023c.026.04.069-.01.1.007-.007.016-.031.028-.025.046-.07-.018-.149.027-.218-.003-.08.063-.164.033-.25.042-.01-.022-.025-.011-.033-.035-.02.026-.052.019-.095.037.08.046.207.038.255.062-.15.014-.301.03-.441-.019-.024.034-.057.012-.062.034.072.074.164.04.242.09-.062.033-.108-.025-.167-.01 0-.038-.092 0-.074-.052-.036.039.045.06.068.058-.13.09-.268-.095-.366.036-.073-.004-.15.013-.213-.036-.023.024-.039.01-.06.023-.026-.027-.06-.015-.097.01-.049.008-.12-.032-.154.003.096.015.194.03.288.067-.004.019-.007.005-.025.017.07.016.146-.003.214.013.012.015-.012.022-.005.034.026-.018.042.018.065.011.017-.005.005-.021.028-.026.101.011.25.02.315.047-.029.01-.051-.003-.08.008.044.025.092.023.137.05-.013.007-.026.016-.039.025-.094-.092-.215-.018-.315-.078.008.017-.03.028-.038.026-.005-.023-.015-.04-.039-.03.002.018.034.009.018.026-.057.014-.101-.04-.16-.013.018.021-.004.05.03.057.029-.005.018-.014.022-.036.01.03.051.019.042.047-.113-.008-.222-.043-.339-.032.086.042.177.054.263.085.023-.029.03-.045.066-.016.004.014-.024.024-.001.04.02.024.048.015.073.025.007.024.01.066.032.073.03-.006-.019-.029.013-.036.13.058.287.1.396.194.051-.014.098.016.126.075.056.024.112.063.168.094.001.017.014.038.018.053.074-.014.163.072.21.114-.065-.032-.178.045-.214-.052-.026.021-.046.007-.065-.013l.031-.02c-.016-.027-.039-.001-.057-.03.031.004-.012-.018-.002-.045-.025-.008-.057.027-.08.008-.048-.033-.008-.046-.03-.085-.021-.01-.044-.001-.07.02a.704.704 0 0 1-.118-.09c.02-.027.046.013.051-.017-.041-.015-.086-.004-.132-.005.02.04.051.009.073.037-.035.036.052.023.035.054-.095.001-.126-.04-.211-.104-.11.028-.157-.106-.257-.13-.008-.016.027-.024.008-.043a.206.206 0 0 0-.073-.035c-.01.027.061.027.05.06-.056.013-.11-.006-.163-.02-.017-.037-.043-.033-.06-.062-.141-.009-.272-.078-.413-.07.149.074.352.121.519.197.005.008-.001.014.007.022a.245.245 0 0 1 .209.114c.108-.014.19.13.291.153.01.013-.018.018-.005.032.03.01.062.01.086.044 0 .024-.002.014-.026.03.013.033.032.007.048.014-.012.007-.01.017 0 .028.047 0 .062.01.103.053.013-.01.025-.013.034-.004.087.063.177.095.263.163.043-.017.103.023.117.061.058-.005.123.042.153.086.098.029.188.094.282.15l-.02.014c.047.027.098.015.14.077.01-.008.022-.011.032-.005.156.065.305.176.458.255.038.068.12.09.182.115a.08.08 0 0 1 .002.013.3.3 0 0 1 .054.032c.012 0 .023 0 .036.005a.06.06 0 0 0 .006.034c.006.005.011.012.016.018a.173.173 0 0 0 .088.027c-.001.01-.023.018-.006.032.041.015.124 0 .123.068.04-.02.089.018.104.058.043.02.08.046.11.079.008.003.017.006.024.01 0 .002-.003.004-.005.008.448.233.815.546 1.24.8.089.074.169.154.274.21.146.164.315.304.451.478.013.007.03.01.044.019-.006.02.01.02.013.033.124.082.193.221.317.306l.022.076z" fill="#448C37" fill-rule="nonzero" mask="url(#b)"/><mask id="d" fill="#fff"><use xlink:href="#c"/></mask><path d="M17.801 33.052c.016.11.06.206.026.344.042.033.011.09.064.121-.008.018.001.029-.019.036a.189.189 0 0 1 .05.177c.127.135.099.321.205.462l-.01.022c.073.075.021.193.134.256.025.1.094.156.144.254-.028.047.02.068.029.103-.011.01-.025.009-.033.027 0 .027.026.045.024.075-.061.015-.066-.08-.106-.107-.01-.015-.035-.002-.04-.015.002.05.107.11.088.181-.052-.028-.082-.065-.087-.106-.027-.017-.043-.005-.07-.02-.015-.054.025-.11.027-.154-.067-.01-.044-.094-.093-.129-.028.004.009.038-.017.062-.067.017-.06-.07-.064-.113.007-.03.027-.017.039-.024.01-.08-.1-.122-.082-.203-.04-.015-.023.026-.05.045-.028-.013-.014-.067.019-.053 0-.028-.027-.057.004-.078-.057-.082-.054-.182-.08-.274-.025-.02-.033.01-.057-.01.005-.033.028-.009.043-.014.028-.066-.042-.1-.002-.17.003-.02-.03.005-.045-.014-.012-.043-.006-.073.014-.117-.047-.053-.022-.13-.054-.188-.005-.002-.01.004-.017-.001-.012-.006-.004.028-.02.042.023.063.065.124-.008.202-.048-.106.027-.216-.04-.315.019-.034.052-.033.08-.036.043-.109-.096-.156-.04-.263.014 0 .032.003.044-.005zm1.205-9.307c-.102-.043-.207-.053-.307-.152-.05.018-.084-.038-.136-.008-.011-.015-.026-.013-.021-.034a.19.19 0 0 1-.178-.047c-.18.04-.325-.08-.5-.061a.098.098 0 0 1-.013-.02c-.103.024-.177-.079-.288-.015-.097-.03-.182.002-.292-.006-.025-.048-.068-.018-.102-.028-.004-.014.005-.026-.007-.042-.022-.014-.052-.001-.076-.017.018-.06.102-.016.146-.036.017-.001.02-.03.032-.028-.042-.022-.149.035-.2-.016.051-.03.098-.039.137-.022.027-.013.025-.034.051-.05.055.016.081.078.12.103.043-.053.102.01.157-.015.01-.026-.037-.012-.045-.046.02-.066.092-.016.13.002.022.023 0 .032.002.046.063.05.154-.023.215.033.033-.026-.011-.033-.014-.066.026-.017.065.022.037.044.023.015.062.006.064.043.1-.006.183.046.275.071.03-.01.009-.032.038-.043.026.02-.007.028-.01.043.043.059.107.016.147.086.016.013.01-.027.034-.032.045.012.067.033.094.073.07-.015.122.047.188.049.004-.003.003-.01.01-.014.012-.007-.021-.018-.025-.04-.066-.012-.14-.007-.17-.109.116.013.172.133.29.127.02.033.002.06-.009.087.07.093.182-.004.246.1-.008.012-.02.026-.02.04zm-2.367.585c.051-.029.06-.02.111-.06.131.009.267-.002.39.044-.17.027-.34.035-.5.016zm1.44 8.828c-.01.112.023.202.057.325-.019.045.002.067.016.119-.079-.06-.072-.188-.13-.28.017-.025.016.02.032.008-.018-.049-.098-.151-.133-.207.02-.09-.028-.195-.004-.283-.033-.037-.004-.06-.038-.095.004-.022.024-.039.041-.054.05.155.07.334.159.467zm-1.876-9.516c-.113-.009-.2.027-.323.063-.046-.018-.067.004-.118.018.058-.08.185-.076.277-.136.025.017-.02.017-.008.033.048-.02.15-.101.203-.137.09.019.195-.032.283-.009.036-.034.06-.005.093-.04.022.004.04.024.055.04-.154.052-.331.076-.462.168zm-3.61-2.078c-.042-.072-.04-.13-.06-.185.031 0 .058.013.091-.002.004.024-.012.046-.02.07.014.03.054.061.01.076.006.018.019.006.028.001.003.013 0 .026.004.035-.02.013-.034.003-.053.005zm-.36-2.1a.33.33 0 0 1-.02-.091c.017.006.053-.004.057-.028-.004-.001-.012-.005-.019-.015-.021.008-.01.02-.028.027-.03-.046-.053-.136-.025-.188-.006.048.037.054.072.058.035-.012.026-.034.045-.047.019.01 0 .048.028.027-.02.048-.055.092-.05.144.004.005.01.003.014.01.019.016.019-.017.035-.021 0 .027.024.059.024.085-.049-.021-.118.007-.133.04zm-.116 3.58c-.062-.099-.101-.296-.178-.363.016-.074-.042-.166-.062-.25.023-.04.013-.082-.03-.121-.015-.018.007-.029.011-.044-.027-.014-.042-.045-.057-.077-.01-.023-.008-.032-.023-.068-.026-.055-.035-.136-.026-.16a.453.453 0 0 1-.075-.253c-.041-.097-.079-.19-.067-.273-.08-.088-.036-.212-.087-.293.01-.058-.027-.125-.03-.183.004-.014.02-.023.023-.036-.008-.021-.039-.047-.019-.063.087.02.03.146.097.219-.045.067.014.122.034.187.012.045.004.07.03.139.044.118.035.273.11.388a.099.099 0 0 0 .018.118c.022.167.085.334.116.485.019.029.045.018.064.044-.036.067.022.184.063.25-.025.106.109.239.088.354zm-.21-5.064c.034-.02.048.03.074.046-.027.005-.06.035-.087.038.008.018.03.005.043.008.012.022.03.044.026.06-.036.009-.036.015-.069.024-.044-.095-.01-.118.012-.176zm-.963-.112l.004-.025c-.093-.164-.13-.353-.205-.507.076.154.112.343.205.507 0 .007-.002.016-.004.025zm-1.09.58c-.01-.045-.12-.426-.13-.463-.012-.033.069-.08.074-.105-.054-.099-.098-.202-.08-.315-.01-.028-.029-.039-.048-.052.02-.052-.018-.105-.006-.157-.023-.024-.034-.077-.062-.094-.048-.423-.166-.71-.267-1.176-.057-.08-.082-.225-.095-.343-.066-.194-.19-.457-.22-.644-.06-.037-.076-.118-.086-.172-.013-.08-.067-.12-.098-.194-.029-.065-.017-.158-.094-.195-.061-.212-.192-.38-.249-.576-.097-.093-.118-.213-.19-.33.1-.017.069.077.125.169.02.03.058.037.066.103.014.025.037.04.057.057-.008.038.024.072.045.094.005.022.018.048.011.063.153.186.224.5.356.685.007.057.042.154.082.188.019.2.143.356.165.547.122.207.164.48.243.687.006.189.102.39.167.583-.016.082.024.152.047.235.023.084.002.192.072.268-.007.02-.024.036-.02.064.054.044.024.114.04.187.016.076.083.155.045.23.073.078.036.221.098.32.043.615-.08.386-.048.337zm-1.58-4.858c.008-.048-.044-.061-.068-.086a.662.662 0 0 0-.134-.225c.02-.063-.054-.087-.066-.136l.014-.037c-.015-.029-.069-.061-.09-.105-.027-.054-.008-.119-.066-.138-.006-.019-.016-.042-.008-.054-.05-.04-.107-.13-.096-.178-.192-.234-.327-.5-.51-.812-.013-.018-.038-.016-.056-.023-.011-.12-.107-.114-.122-.187.048-.013.093.08.114.131.103.1.2.207.284.343.025.026.038.01.065.021.01.024.015.046 0 .058.001.023.035-.018.035.007.009.018-.002.027-.023.031.032.055.108.132.151.228.008.015.03.017.032.022.005.007-.015.02-.007.027.03.042.126.078.091.137.051.084.078.22.162.242.012.037.033.047.007.072.015.036.044.049.07.07.063.21.175.36.26.59-.015.006-.02-.01-.04.002zm-2.766-3.464c.01-.055.085-.009.13-.033.039.042.125.043.087.1-.086-.025-.135-.036-.217-.067zm2.481 2.046c.009-.023-.011-.062.02-.068-.002-.033-.038-.019-.046-.04.005-.122-.121-.182-.146-.28-.049-.009-.102-.078-.069-.115a.28.28 0 0 1-.072-.14c.014 0 .02.012.041.008.075.11.166.274.247.405.002.022.032.043.003.057.019.016.046.022.064.045.006.068.035.103.077.122.139.31.313.481.445.796.008.018.026.024.04.035-.016.064.06.116.08.186.004.013-.006.026-.001.04.03.07.125.124.102.215-.008 0-.016.001-.023.004-.047-.07-.06-.136-.095-.224-.021-.05-.057-.062-.091-.104-.023-.031-.025-.073-.044-.105-.058-.112-.145-.223-.178-.33-.157-.152-.198-.39-.354-.507zm1.472 2.916c-.016-.085-.065-.14-.075-.227.051.05.058.144.1.187.01.016-.02.03 0 .032 0 .008-.014.006-.025.008zm-.151-.732c.006-.027-.027-.011-.031-.023.03-.028-.06-.06-.011-.08-.005-.017-.013-.029-.04-.023-.003-.034-.023-.047-.025-.078.022-.006.026-.033.046-.04.054.06.08.163.085.235.024.025.062.076.034.11-.037-.006-.105-.089-.058-.101zm.826 2.17c-.067-.054-.09-.186-.084-.266-.08-.068-.059-.24-.142-.305.026-.082-.076-.17-.053-.252-.02-.025-.075-.05-.05-.093-.03.004-.034.007-.056-.007.016-.058-.012-.075-.027-.126 0-.028.022-.032.038-.041-.008-.02-.06.004-.07-.013.017-.065.002-.073-.019-.126.033-.022.06 0 .064.037l-.025.001c.002.035.051.023.065.045.02.096.093.17.086.267.028.021.047.058.073.085.007.026-.027.012-.022.033.028.064.102.177.051.244.01.02.023-.012.034.007.025.12.1.227.093.36.024.034.043.071.075.095-.007.022-.026.03-.03.056zm-3.355-5.604a1.035 1.035 0 0 1-.226-.213c.075.05.194.124.226.213zm1.403 1.721c.001.023-.014.04-.044.046-.03-.05-.055-.06-.069-.118.033.03.079.041.113.072zm.05.438c-.091-.061-.144-.195-.207-.307.008-.002.012-.007.011-.013.132.034.158.237.197.32zm-.86-1.441a.34.34 0 0 0-.033.022c.072.08.113.142.196.242-.093-.056-.169-.196-.257-.28.038-.022.065.003.094.016zm1.225 2.1c.006.019-.002.031-.02.04.053.076.103.149.13.24.045.022.084.105.096.152.01.035-.018-.007-.032.003-.014-.072-.078-.098-.072-.16-.031-.03-.054-.07-.092-.08.01-.078-.047-.142-.074-.218.024 0 .039.022.064.023zM3.134 7.917c.004-.07-.063-.076-.093-.149.042.027.127.099.127.146.074.031.158.11.232.209-.104-.01-.166-.191-.266-.206zm.051.248c-.014-.003-.03.008-.043.006-.011-.026-.022-.036-.023-.068-.023-.006-.048-.01-.057-.03-.003-.01.006-.031.009-.033-.025-.026-.058-.015-.088-.049.007-.005 0-.012-.001-.018.094-.022.14.123.21.159-.003.01-.024.016-.007.033zm-.575-1c.082.084.12.237.231.357-.112-.061-.152-.204-.231-.358zm-.444-.432c-.056-.043-.056-.165-.072-.236.021-.019.033.008.05.007 0 .084.028.142.022.229zM1.109 4.132c.016-.094.082-.174.139-.256a.612.612 0 0 1 .16-.266c.017.027.039.012.04.049-.155.123-.21.342-.34.473zm1.055-.427c.004.024.023.05.028.076-.066.044-.19.065-.134.158-.074.023-.108.085-.141.116.003-.13.152-.278.247-.35zm.978.05c0 .045.044.012.067.033l-.033.021c-.034-.048-.12.024-.128-.042.026.013.06.005.094-.012zm18.025 21.901c.03.05.12.163.022.201-.023-.05-.049-.079-.079-.127.025-.022.025-.07.057-.074zM10.763 14.254c-.023 0-.22-.497-.237-.527.009-.072-.17-.448-.271-.756-.41-1.022-.577-1.637-2.155-3.354-.13-.141-.449-.374-.468-.403-.096-.14-.443-.285-.523-.368-.127-.13-.16-.123-.412-.218a2.398 2.398 0 0 0-.205-.101c-.058-.025-.157-.008-.22-.03a3.435 3.435 0 0 0-.415-.084c-.238-.029-.407-.021-.699-.054-.085-.004-.219-.037-.385-.04a3.205 3.205 0 0 1-.535-.054c-.27-.077-.427-.134-.553-.28a2.948 2.948 0 0 1-.361-.344 2.856 2.856 0 0 1-.424-.616 1.94 1.94 0 0 1-.186-.562 2.092 2.092 0 0 1-.108-.339 1.188 1.188 0 0 1 .022-.363c.016-.063 0-.19.063-.199.008-.167.159-.273.183-.434.095-.113.641-.68.69-.723-.011.002-.02 0-.027-.012a.241.241 0 0 1 .153-.113c-.012-.016-.021-.033-.007-.043.03-.026.082-.02.072-.063-.094.052-.244.106-.29.19-.046-.011-.073.04-.12.047.007.045-.084.08-.118.065.045-.104.186-.165.243-.255-.036 0-.072.052-.127.052-.006.045-.044.067-.09.066-.018.012-.004.033-.016.047-.017-.012-.038.009-.051-.006.016-.016.009-.04.009-.061-.027.008-.02.025-.043.036-.01-.023-.031-.018-.025-.04.022 0 .049-.016.072-.017.013.01-.005.033.02.015.068 0 .096-.084.149-.121.031-.025.11-.025.104-.083-.07-.017-.122.073-.19.08 0-.018.048-.027.033-.048-.108-.002-.116.11-.23.107-.037.051-.131.146-.2.143.004-.029.037-.05.026-.08.016.005.028.016.05.005.042-.051.076-.119.14-.134-.043-.035-.06.01-.098.023.006.011.018.023.01.032-.096-.002-.123.104-.213.104.006-.025.035-.019.054-.033.082-.126.263-.252.39-.357.055-.044.092-.052.07-.071.021.008.063-.012.066-.022-.01.007-.035-.013-.022-.024.032-.026.076-.012.09-.037-.057-.017-.081.002-.162.055a.152.152 0 0 1-.012-.02l-.062.037c.022.072-.093.083-.138.076-.022.05-.086.059-.119.077.124-.124.338-.261.537-.393-.01-.022-.032-.002-.04-.031.044-.012-.009-.031.005-.04l.04-.023c-.01-.024-.038-.015-.032-.038-.009.038-.077.059-.1.092-.02-.006-.005-.01-.018-.027-.022.013-.039.002-.061.02.005.026.023-.008.03.02-.047.019-.099.01-.117-.012-.018.03-.036.022-.031.056-.054-.03-.108.027-.188.043-.001.026.008.058-.003.086-.063-.03-.122.069-.179.027-.013.026.024.032.007.053-.026-.017-.037.027-.062-.009.119-.14.286-.234.447-.354-.024.016-.039-.01-.056-.02-.02.016-.03.034-.042.053-.11-.008-.202.157-.312.157.01-.05.091-.076.14-.105-.023-.025-.058.002-.087.009-.053.08-.251.177-.338.294-.136.069-.253.219-.334.358-.016.016-.022-.004-.036.003.013.13-.14.184-.155.302-.15.168-.15.398-.292.547.006.051.024.105-.047.14-.045.139-.03.29-.107.422.015.017.008.027.019.045-.068.166.026.373-.024.545.028.045.038.085-.005.115.063.112.063.257.079.38-.054-.128-.117-.25-.069-.35-.01-.017-.023-.013-.031-.036a1.308 1.308 0 0 0-.028-.299c.032-.074 0-.16-.012-.245.017-.025.015-.054.024-.08-.024-.082.005-.203.044-.288a.654.654 0 0 1 .138-.393c-.016-.02.002-.03-.012-.048a3.16 3.16 0 0 1 .422-.786c.031-.013.029-.033.056-.045-.004-.067.065-.139.126-.172 0-.052.046-.06.077-.085.04-.036.069-.098.104-.13.076-.073.185-.118.248-.202.013.004.031-.004.046 0 .001-.015-.013-.036.01-.043.134-.077.25-.168.375-.264-.09-.072-.19.082-.283.067-.001.012.01.03-.014.037-.014 0-.023-.007-.033-.02-.029.027-.037.03-.069.036.02.038-.035.031-.062.066-.01-.004-.019-.015-.027-.03-.004.08-.149.141-.222.167.02.02.012.033.001.046-.073-.052-.193.122-.208.008.012-.007.017.02.033.009-.009-.025-.002-.032.024-.035-.012-.016-.022-.033-.007-.042.17-.103.3-.274.528-.377a.093.093 0 0 1 .083-.06c-.001-.038.06-.113.105-.084-.004-.011-.018-.026-.01-.032.159-.074.262-.166.46-.249-.021-.02-.008-.033-.024-.05-.044.026-.068-.013-.088.035.017.03.05-.006.072.012-.035.026-.078.018-.117.007.015.015.013.026-.007.033-.006-.009.003-.016-.006-.024-.026.035-.049.017-.08.021-.059.061-.164.087-.257.125-.007-.015.019-.021.008-.034-.033.005-.065.013-.094.012-.014-.021-.011-.031-.01-.058-.108-.014-.167.07-.27.102.02.022.012.038-.007.05-.028.018-.045-.016-.07-.01-.028.028-.047.026-.066.06-.028.011-.05.006-.066-.017-.02-.073.064-.061.093-.074.022-.011.097-.126.163-.112a.782.782 0 0 1 .305-.182c-.006-.011-.018-.023-.01-.031.064-.001.109-.054.17-.07-.08-.039-.16.062-.239.048-.017-.016.034-.014.019-.03-.03.002-.059.034-.068.04.013-.004.022.003.03.02-.006.004-.005.01-.01.016a.936.936 0 0 0-.19.082c-.03-.008.004-.025.004-.04-.122.046-.205.09-.32.143.027.03-.017.045-.043.064-.01-.018-.021-.026-.037-.013-.013.011.023.035.001.046-.188.002-.274.206-.416.287a.214.214 0 0 1-.144.156c-.007.047-.097.076-.077.131-.052.033-.087.102-.142.07.03-.113.173-.173.214-.282.153-.119.207-.255.375-.354.003-.055.07-.12.126-.126.06-.068.126-.14.21-.14-.014-.07.128-.04.096-.1-.063.002-.158.09-.22.11-.008-.074.094-.06.07-.127-.09.086-.242.1-.305.21-.064-.017-.076.102-.157.108 0-.059.055-.095.107-.114.078-.104.265-.25.417-.298.013-.036.051-.035.067-.06-.035.006-.086.013-.11.05-.136 0-.35.168-.43.25.01-.004.018-.002.026.01-.037.025-.072.047-.102.046-.19.181-.349.37-.54.523-.067.163-.247.33-.323.51-.036-.005-.028.036-.063.05.018.047-.03.096-.078.113-.031.097-.13.18-.15.28-.018.008-.026-.029-.045-.01-.018.033.024.05.031.093-.06.048-.057.109-.095.162-.017.02-.02-.02-.035.003-.017.022.013.03.012.049-.078.05-.064.168-.12.243-.021-.06-.018-.112.036-.153-.001-.02-.018-.044-.01-.06.015 0 .022-.004.027-.016C.45 4.55.438 4.532.44 4.52c.095-.198.18-.399.25-.602.095-.113.159-.281.287-.404.012-.032-.004-.07.023-.098.026-.007.016-.01.04-.024.001-.02-.002-.04.013-.054.148-.147.234-.369.433-.486.014-.04.054-.094.11-.107.137-.132.237-.267.43-.37.24-.266.595-.377.909-.54-.036-.044-.064.03-.105.01.008.01.003.02-.012.025a.938.938 0 0 0-.456.164c-.126.004-.215.142-.312.14-.02.04-.024.035-.07.052-.09.094-.188.178-.323.258-.02.008.01.028-.014.037-.35.203-.531.517-.784.787-.004.014.017.035 0 .047-.09.103-.157.212-.26.312.01.018.002.031 0 .046a.307.307 0 0 0-.12.224c-.025.04-.08.074-.052.126-.076.101-.132.172-.17.294-.013.007-.023.015-.035.02-.006.02.013.027.025.04-.022.011-.021.03-.05.04-.014.082-.005.167-.065.238-.006.04.02.088-.03.12a.521.521 0 0 1-.052.303c.028.145-.054.263-.026.409C.016 5.53.01 5.523 0 5.532c.034.087-.019.18.027.252-.053.08.044.192-.019.284.07.14.044.307.06.456a.547.547 0 0 1 .047.24c.064.142.075.328.138.492-.018.012-.02-.003-.027.017.015.023.037.01.05.034-.006.089.094.21.093.315.045.05.116.17.12.24.147.176.141.44.291.627.002.01 0 .02-.012.025a.31.31 0 0 1 .141.183c.01.012.026-.01.034.008-.01.06.153.103.12.195.05.022.064.034.093.09a.27.27 0 0 1 .157.164c.15.12.268.339.424.447.027.069.104.068.101.131.105.052.197.197.276.238a.045.045 0 0 0-.012.025c.086-.013.14.104.213.148-.009.01.006.023-.019.03.086.026.12.094.188.135.259.148.57.336.717.396.083.028.225.112.31.139.165.041.35.126.533.17.184.043.365.045.516.08.258-.005.389.039.395.04.336.017.616.138.728.264.293.233.703.8.763.89.834 1.41 1.468 3.516 2.168 6.37.009.016-.01.026-.01.042.043.004.01.071.052.098-.013.084.077.209.028.299.057.033.028.098.073.16-.042.042.054.137.025.208.05.083.032.15.061.23-.011.009-.02.015-.023.026.048.086.07.233.097.35-.03.029-.033.064.002.11-.007.007-.004.018-.022.022a.469.469 0 0 1 .05.305c.01.016.024.012.03.037-.006.059.033.13.004.183.02.037.032.073.006.1.016.024.026.02.03.046a.293.293 0 0 1-.034.021c.014.054.082.072.032.129.047.042.064.12.037.163.02.029.036.03.006.053.01.017.023.013.03.037-.015.109.121.267.068.377.022.039.043.078.02.107.012.026.037-.006.046.029.009.018-.017.026-.022.04.06.06.029.112.042.17.043.07.041.134.079.202l-.027.018c.035.017.01.036.01.059.04-.008.024.04.025.057.044-.006.014.058.022.081.025.025.048.064.018.09.06.129.103.302.104.42.012.03.028.022.04.05-.024.073.04.135.072.206.018.04.016.116.036.164.021.044.04.068.017.1.018-.002.031.02.043.042-.01.013-.009.026-.031.036.079.024.024.337.105.385-.029.033.024.059.044.084.005.013-.01.018-.013.027.119.197.186.526.309.692-.027.006.004.026-.005.038.03.002.076.076.063.1.043.017.06.042.085.08 0 .013-.019.025-.021.04.045-.022.086.05.073.086.117.068.143.249.25.299.01.02.01.042.01.06.1.098.2.188.283.308.042.021.1.102.096.125.118.04.199.23.316.27.044.107.162.096.174.19.085.042.224.091.257.19.145.066.279.163.403.244.012.016-.004.023.013.037a.121.121 0 0 1 .159.067c.1.011.25.02.34.082.094-.009.094.015.174.026.102.016.09.026.105.027.098.023.172.002.248.053.067-.023.14.07.185.081.048.012.106-.056.102-.01.105-.023.19.033.288.044a.062.062 0 0 0 .03-.026c.09.02.19-.001.276.04.137-.05.239.013.372-.022.074.05.176-.028.242.046.017-.009.014-.023.037-.032.21-.022.394-.046.604-.145.083.018.16-.04.245-.042.077-.08.193-.015.265-.082.056.033.1-.044.152-.009.036-.036.09-.035.131-.028.068-.056.144-.032.213-.076.013.012.025.009.035.024.087-.04.12-.041.205-.08.01.024.099-.03.106-.005.032-.029.015-.08.048-.052.103-.036.24-.084.336-.013.024-.018.089-.022.114-.017.016.018.2.018.263.07.177.064.163.073.27.158.02.012.166.15.177.163.172.107.098.086.186.27a.48.48 0 0 1 .107.283c.092.054.04.24.074.35-.025.006-.01.02-.018.03l.032.053c-.027.108.052.243-.01.342.036.023.042.132.006.174.061.137-.007.29.018.436-.01.016-.004.039-.029.055.025.043.01.076-.03.102.04.058-.019.096-.054.136-.033.087-.082.25-.183.32.005.06-.02.139-.085.165.011.021.01.041-.001.057-.051.024-.178.35-.195.386.011.01-.139.286-.139.286-.042.013-.104.21-.14.197.01.02.01.119 0 .135-.024-.01-.057.015-.051.04.009-.012.038-.004.021.006-.005.027-.027-.005-.05.023-.021.069-.06.134-.077.206-.04.004-.045 0-.071.034.008.018.022.007.028.028-.117.126-.017.28-.138.399.017.04.077.074.027.097.01.06-.005.098-.06.13.02.152-.104.27-.09.42-.077.082.003.188-.063.27a.311.311 0 0 1-.061.215c.032.084.09.174.025.236.026.1.01.19.016.284.007.026.009.053.014.079.023.378.02.745.104 1.053.01.01.036.002.038.022 0 .019-.03.029-.014.046.118.366.21.723.411 1 .013.004.04-.01.04.007-.018.08.098.087.095.177.069.026.102.09.164.124-.006.053.052.1.102.118.09.13.187.253.289.372l.014.01c.138.107.194.214.325.319.317.222.415.454.765.668.452.24.916.458 1.373.684.028.01.054.017.082.028-.041-.032-.1-.042-.133-.08-.032.01-.071.006-.069-.042.06.015.109.018.123.056-.002-.015.007-.018.023-.017.016-.002-.004.035.023.023.113-.033.125.075.23.074.017-.006-.027-.02-.002-.037.072.037.159.06.238.09.011.03.032.054.06.068l.021.006c.015-.032.07-.024.092-.05.14.083.386.1.565.156.287.04.578.076.868.11-.049-.04-.144-.038-.216-.057.006-.027-.012-.028-.01-.054a3.105 3.105 0 0 0-.25-.037c-.024.03.05.041.024.068-.096.014-.12-.047-.154-.101-.026.055-.054.086-.112.065.001-.038.026-.05.038-.077-.277-.071-.55-.14-.81-.26l-.062.002c-.203-.145-.473-.218-.67-.37.124.026.212.13.344.123.05.069.143.089.237.091.091.053.196.134.337.11.019.053.11.047.168.061.04.01.091.06.106.013-.064-.041-.23-.036-.283-.104.03-.006.02-.05.029-.054.108.024.2.083.311.048.014.057.06.031.093.037.035.004.06.027.083.026.043 0 .11-.057.122.018.006-.024.014-.004.037-.01.002.023-.028.01-.03.025.15.037.329.062.464.09.02-.046.04-.075.05-.115.042.026.078.06.145.04.009.026-.026.051.016.046.018-.007-.015-.02-.007-.038.068-.035.157.025.219-.008 0-.044-.036 0-.04-.037.026-.02.102.004.12-.034-.063.009-.09.003-.175-.001a.038.038 0 0 1-.075.01c.017.015.033-.012.053-.018-.036 0-.113-.047-.137-.002.035.003.037 0 .07.012-.027.02.003.052-.029.07-.014-.011 0-.053-.032-.045-.018.011.015.023-.006.03-.038-.031-.06-.046-.116-.033-.01-.041 0-.045.005-.084a.214.214 0 0 1-.112-.034c-.027-.008-.007.025-.032.016-.008-.008-.027-.008-.045-.007-.007-.013-.036-.008-.039-.026-.044.01-.051-.018-.09-.013-.062-.08-.298-.035-.3-.133.063.066.191.014.252.08.028-.056.123.017.165-.005-.06-.02-.132-.055-.181-.023.006-.029-.018-.024-.024-.038-.095.01-.152-.06-.214-.023-.076-.103-.251-.064-.351-.131-.024-.01-.021.003-.053.002.001-.03-.036-.02-.04-.044-.092-.036-.196-.055-.281-.096a.287.287 0 0 1-.095-.073c.137.032.263.074.374.131.027.002.028-.015.054-.01.04.022.087.06.145.04.187.08.42.11.626.168.018 0 .021-.012.036-.017.051.035.107.05.176.04.08.051.191.031.28.045.015 0 .034.016.048.02.02.004.043-.013.059-.01.02.001 0 .023.023.022.03-.002.054-.014.075-.025.073.048.174.049.267.058.094.012.208.014.303.005.106.028.204.02.341.026.011-.004.005-.024.03-.017.11.045.306-.016.37-.005.006-.026.058-.013.051-.054-.243.015-.508-.03-.696 0 .001-.016-.007-.023-.023-.02-.262-.007-.511-.045-.712-.043-.002-.013 0-.028-.016-.024-.059.004-.061-.028-.129-.01-.038-.047-.094-.028-.152-.01-.004-.042-.05-.003-.061-.043a.239.239 0 0 0-.083.01c-.03-.027-.08-.06-.131-.04-.044-.05-.148-.054-.197-.024-.068-.062-.154-.02-.207-.098-.001-.015.029.01.037-.01-.005-.026-.052-.016-.032-.052.03 0 .034.032.062.036.007-.023.018-.037.045-.024.02.019.003.046-.015.054.037.003.061-.016.075-.049-.127-.038-.252-.083-.38-.116-.188-.048-.367-.11-.55-.162-.031-.036-.059-.076-.124-.071-.005-.08-.14-.059-.134-.126.048.006.086.023.102.066.023.01.002-.024.029-.016.05.071.15.047.207.114.019 0 .038 0 .047-.01.113.07.246.116.404.138.17.077.39.099.581.154.002-.016-.015-.053.011-.046.03.102.137.059.191.038.004.017-.01.017-.013.024.036.009.033.012.076.012.016-.046.036-.048.072-.07.06.017.084.057.096.11 0-.011.017-.007.029-.01.004-.029-.036-.053-.018-.074.033.016.1-.004.114.036.019-.033.077-.029.112-.044-.025-.055-.133-.057-.175-.031-.062-.055-.16-.024-.207-.099.041-.017.11-.014.108.042.021-.01.023-.036.05-.04.055.03.12.004.16.04-.004.015-.045-.003-.037.023.077-.018.15-.067.235-.014.019-.01-.007-.046.006-.046.024 0 .094-.006.129.01-.001.02-.012.031-.013.053.039.028.108-.033.122.033.046-.034.101-.028.15.01.05-.047.116.002.189-.021-.009-.026-.07.002-.076-.027.057-.027.142.024.172-.038-.07-.014-.106-.056-.183-.047-.007.016.023.026 0 .032-.064.006-.075-.048-.127-.017.016-.048-.052-.024-.076-.015-.022 0-.01-.033-.04-.03-.228-.036-.43-.072-.692-.11.005.027.052.05.034.074-.074-.016-.156-.02-.199-.067-.03-.008-.022.018-.045.015a2.417 2.417 0 0 1-.443-.135.372.372 0 0 1-.293-.157c.082.007.146.046.204 0 .073.025.133.028.192.077.044-.049.126.06.167-.006-.064-.015-.112-.075-.185-.055-.055-.065-.187-.025-.223-.12-.186-.057-.369-.154-.575-.216-.025-.036-.067-.058-.1-.088-.102.01-.155-.086-.202-.13.219.088.43.192.672.205-.023-.034.039-.016.044-.047.173.11.371.08.565.163.013-.014.024-.034.06-.024.008.033.056.028.07.056-.018.048.01.075.048.083.012-.007-.003-.037.013-.039l.001.031c.037-.017.07-.054.098-.011-.01.02-.031-.012-.037.008.03.02.066.01.098-.002.051.042.167.105.228.045-.004.021.013.021.01.044.074-.007.157.045.234.006.075.059.25.008.35.058.035-.008.04-.04.074-.049.008.03.027.015.068.02.04.029.072.059.131.065.022-.028.093-.01.104-.052.043.045.129-.007.162.043.124-.037.255-.019.399-.023.02-.028.018-.048.035-.07-.004.042.03.066.07.082.002-.07.058-.087.102-.118-.043.027-.183-.012-.225.045a.838.838 0 0 0-.362-.008c-.068-.005-.124-.035-.192-.04-.077-.003-.16.024-.24.017-.012-.001-.02-.02-.031-.022-.017-.001-.034.011-.052.008-.03-.002-.062-.02-.093-.026-.11-.019-.187-.002-.258-.03-.02 0-.014.026-.044.018 0-.011.019-.007.014-.023-.229-.038-.464-.047-.64-.145.06.003.102.006.158-.005.022.04.082.04.13.048.012-.04-.034-.025-.03-.06a.847.847 0 0 1-.322-.08c-.046.008-.082-.016-.113-.003-.03-.042-.092-.049-.161-.047-.021-.02-.053-.026-.062-.058-.05.003-.068-.028-.115-.027-.046-.056-.148-.065-.229-.09-.053-.017-.135-.037-.133-.095.05-.002.047.035.1.012.025.07.118.065.19.086a.106.106 0 0 0 .022-.085c-.022-.006-.038-.016-.061-.022-.019-.002-.017.047-.03.026-.003-.074-.137-.062-.172-.123.057.005.09.034.153.031.003-.023-.018-.028.005-.037.183.044.357.135.565.132-.058-.058-.16-.05-.223-.084-.021.006-.03.023-.067.018-.02-.01-.028-.037-.039-.06-.095-.012-.142-.078-.252-.074-.163-.102-.395-.13-.516-.277.221.033.434.235.658.203.046.079.174.031.251.082-.035-.038-.034-.077-.071-.103-.01.02.022.031 0 .037-.027 0-.047-.036-.032-.06-.081-.001-.12-.053-.205-.052a.165.165 0 0 0-.154-.062c-.025-.065-.13-.044-.148-.118.039-.004.065.033.1.043.034.009.072-.008.097.005.024.008.038.041.064.05.015.004.04-.004.06-.002.08.01.132.083.198.031.032.063.152.079.198.045.001.035.032.035.047.052.083-.045.13.06.227.03.02.009.031.03.055.036.18-.005.363.051.516.05.101.075.3.06.402.048.02.002.026.024.054.02.096-.023.194.012.295.012-.005-.017.012-.017.006-.038-.036-.016-.037-.025-.078-.036-.008.027.024.006.017.03-.017-.015-.062.018-.075-.011.005-.013.037-.003.03-.025-.15 0-.286-.062-.433-.068 0-.013-.004-.023-.01-.03-.047.03-.123-.023-.078-.066.05.08.16.033.22.045.004-.011-.01-.038.007-.038.05.012.046.012.075-.017.02.015-.002.04.025.036.006-.035.075-.01.09-.002.082-.057.23.017.356.01-.013-.029.032-.002.02-.031a4.182 4.182 0 0 1-.782-.117c-.004-.013-.02-.012-.016-.038-.042.011-.052-.012-.084-.012.01-.01.01-.029-.001-.037-.032.007-.05-.004-.075-.005-.012.033.042-.003.03.03-.018-.01-.045-.01-.068-.013-.01-.02.022-.034-.009-.03-.22-.05-.416-.13-.634-.183-.01-.009-.01-.03-.03-.03-.15-.066-.303-.129-.446-.202.005-.042-.06-.096-.004-.116.017.002.018.018.017.038.149.049.292.186.46.166.001.035.042.035.079.035a.398.398 0 0 1-.048-.038 3.122 3.122 0 0 1-.799-.371 2.552 2.552 0 0 1-.566-.509c-.546-.359-.773-1.074-.725-1.709.009-.128.04-.248.088-.357a.729.729 0 0 1 .073-.205c.033-.158.088-.311.178-.445.045-.116.103-.225.175-.327.558-1.14.918-2.135.901-3.444 0-.063.003-.12.01-.18-.002-.004-.002-.01-.002-.015a1.14 1.14 0 0 1-.092-.533c.01-.095.015-.19.018-.285a1.148 1.148 0 0 1-.064-.133.062.062 0 0 1-.006.012c-.031-.03-.024-.061-.023-.094-.007-.023-.018-.045-.022-.069-.002 0-.002-.002-.003-.002v-.003c-.024-.1-.055-.2-.09-.299a1.467 1.467 0 0 1-.271-.516c-.006-.004-.01-.01-.014-.011-.028-.122-.185-.205-.16-.32-.054.003-.061-.056-.096-.11-.012.005-.03.031-.037.015-.033-.028.023-.065-.037-.088.024-.018.014-.033.043-.035-.125-.107-.212-.284-.344-.317-.02-.094-.123-.114-.177-.178-.018-.023-.02-.057-.039-.078-.017-.02-.045-.025-.065-.044-.132-.116-.286-.22-.433-.325.017.026-.01.04-.02.057-.041-.019-.025-.068-.032-.099-.055-.038-.108-.085-.167-.102-.177-.176-.424-.258-.628-.4-.007.003-.014.009-.017.002-.015.015-.04.026-.028.046.006.03.05.008.06.066a.197.197 0 0 1-.032.037.18.18 0 0 1-.11-.053c.031-.013.025-.008.048-.03.01-.028-.005-.061-.012-.095-.08 0-.159-.126-.237-.067-.102-.098-.313-.138-.439-.154-.08-.008-.18-.046-.253-.064-.04-.01-.083.001-.125-.007-.06-.01-.116-.05-.176-.057-.062-.008-.132.012-.197.011-.119-.002-.242-.01-.358.02-.01-.023-.029-.006-.042-.022-.135.032-.302.032-.446.074-.066.02-.138.033-.177.074-.073-.025-.182.015-.258.077-.194.032-.362.176-.552.203-.083.088-.192.046-.278.137-.017 0-.03-.017-.048-.017-.02.016-.026.036-.051.053-.115-.008-.207.096-.348.066-.029.014-.033.032-.045.048-.065-.028-.151.03-.211-.026-.058.048-.1.019-.142-.005-.074.015-.138-.013-.203-.04-.04.043-.109.016-.152-.008.007-.01.003-.021-.004-.035-.048-.021-.111.002-.145-.04-.029-.036-.089-.05-.135-.084-.042-.029-.072-.075-.13-.086-.078-.06-.146-.166-.232-.21-.027-.094-.106-.165-.152-.25-.225-.394-.33-.813-.461-1.221-.04-.242-.152-.49-.203-.73.008-.004.02-.01.016-.02-.07-.07-.041-.195-.1-.263.029-.112-.03-.244-.051-.368a.217.217 0 0 0 .02-.013.586.586 0 0 1-.063-.325c-.008.005-.016.008-.02-.005-.054-.326-.08-.665-.128-.99-.01-.026-.032 0-.043-.026.043-.03.001-.089 0-.134 0-.007.02-.02.02-.028-.003-.014-.016-.04-.02-.063-.015-.062-.02-.154-.067-.198.004-.035.003-.105-.033-.113a.166.166 0 0 0-.005.115c-.024.027-.072.022-.077.038.033-.003 0 .027.014.038.019.008.038 0 .056.013-.01.032-.037.037-.07.053.047.032-.026.08.044.131-.022.018-.032.061-.054.061-.039-.159-.079-.283-.116-.44.023-.026.033 0 .052-.003-.004-.02.017-.035.034-.051.017.025.02.047.025.07.04-.03.05-.079.08-.098-.44-1.581-.993-3.37-1.45-4.234z" fill="#6BA3CB" fill-rule="nonzero" mask="url(#d)"/><path d="M6.867.007c-.038-.028-.1.036-.045.059.012-.035.036-.019.045-.059" fill="#448C37" fill-rule="nonzero"/><path d="M6.822.066c-.055-.023.007-.087.045-.059-.009.04-.032.024-.045.06" fill="#448C37" fill-rule="nonzero"/><path d="M47.767 12.253h-3.144v4.26h3.144c1.415 0 2.378-.783 2.378-2.12 0-1.337-.963-2.14-2.378-2.14zM50.224 24l-2.949-5.73h-2.652V24H42.5V10.4h5.424c2.654 0 4.343 1.662 4.343 3.973 0 1.947-1.218 3.19-2.79 3.61L52.7 24h-2.476zm9.552-6.666c-.315-.686-1.027-1.153-1.976-1.153-.95 0-1.68.467-1.997 1.153-.197.413-.237.684-.257 1.243h4.507c-.02-.56-.078-.83-.277-1.243zm-4.23 2.523c0 1.567.91 2.558 2.55 2.558 1.127 0 1.72-.289 2.431-.937l1.286 1.099C60.785 23.513 59.816 24 58.057 24c-2.51 0-4.507-1.207-4.507-4.685 0-2.954 1.68-4.665 4.25-4.665 2.689 0 4.25 1.8 4.25 4.395v.812h-6.504zm12.038-3.499c-1.713 0-1.936 1.484-1.936 2.987 0 1.502.223 2.987 1.936 2.987 1.712 0 1.917-1.485 1.917-2.987 0-1.503-.205-2.987-1.917-2.987zm-.223 11.892c-1.433 0-2.345-.337-3.331-1.259l1.209-1.22c.596.563 1.117.844 2.047.844 1.601 0 2.215-1.144 2.215-2.423v-1.22c-.688.826-1.47 1.09-2.438 1.09-.949 0-1.73-.322-2.252-.846-.912-.92-1.061-2.255-1.061-3.87 0-1.616.15-2.95 1.061-3.87.521-.527 1.321-.826 2.27-.826 1.006 0 1.77.262 2.476 1.126v-1.013H71.4v9.467c0 2.329-1.526 4.02-4.039 4.02zm6.66-4.25h2.408v-9.643h-2.408V24zm-.071-11.547h2.55V10.4h-2.55v2.053zm10.848 4.358c-.383-.342-.906-.522-1.508-.522-.603 0-1.105.18-1.487.522-.623.56-.704 1.515-.704 2.504 0 .991.081 1.947.704 2.504.382.343.884.542 1.487.542.602 0 1.125-.199 1.508-.542.622-.557.702-1.513.702-2.504 0-.99-.08-1.944-.702-2.504zm1.547 6.108C85.68 23.532 84.675 24 83.29 24c-1.387 0-2.372-.468-3.035-1.081-.964-.902-1.205-2.055-1.205-3.604 0-1.531.24-2.684 1.205-3.585.663-.612 1.648-1.08 3.035-1.08 1.386 0 2.391.468 3.055 1.08.963.901 1.205 2.054 1.205 3.585 0 1.55-.242 2.702-1.205 3.604zM95.85 24v-5.631c0-1.442-.838-2.061-1.899-2.061-1.06 0-1.954.639-1.954 2.06V24H90.1v-9.24h1.862v.928c.65-.693 1.563-1.038 2.511-1.038.968 0 1.768.309 2.326.837.727.694.951 1.569.951 2.606V24h-1.9zM113.418 24v-5.941h-5.838V24h-2.18V10.4h2.18v5.807h5.838V10.4h2.182V24h-2.182M123.051 19.857h-2.214c-1.118 0-1.695.485-1.695 1.315 0 .828.54 1.297 1.732 1.297.726 0 1.265-.054 1.768-.523.279-.27.41-.702.41-1.352v-.737zm.037 4.035v-.83c-.689.668-1.34.938-2.513.938-1.172 0-1.953-.27-2.53-.83-.484-.485-.745-1.187-.745-1.963 0-1.53 1.099-2.63 3.258-2.63h2.493v-.649c0-1.153-.596-1.711-2.065-1.711-1.043 0-1.546.233-2.067.882l-1.246-1.134c.892-1.01 1.824-1.315 3.387-1.315 2.586 0 3.89 1.062 3.89 3.134v6.108h-1.862zm8.187.108c-2.041 0-2.925-1.242-2.925-2.675V10.4h2.146v10.811c0 .744.295 1.128 1.158 1.128h.946V24h-1.325zm6.8 0c-2.041 0-2.925-1.242-2.925-2.675V10.4h2.146v10.811c0 .744.295 1.128 1.157 1.128h.947V24h-1.326zm7.077-4.143h-2.215c-1.118 0-1.695.485-1.695 1.315 0 .828.54 1.297 1.731 1.297.727 0 1.266-.054 1.77-.523.279-.27.409-.702.409-1.352v-.737zm.036 4.035v-.83c-.688.668-1.34.938-2.511.938-1.175 0-1.956-.27-2.533-.83-.483-.485-.744-1.187-.744-1.963 0-1.53 1.098-2.63 3.257-2.63h2.495v-.649c0-1.153-.596-1.711-2.067-1.711-1.042 0-1.545.233-2.066.882l-1.247-1.134c.894-1.01 1.824-1.315 3.387-1.315 2.588 0 3.891 1.062 3.891 3.134v6.108h-1.862zm11.014.108v-5.631c0-1.442-.838-2.061-1.898-2.061-1.062 0-1.955.639-1.955 2.06V24h-1.899v-9.24h1.861v.928c.652-.693 1.564-1.038 2.513-1.038.968 0 1.768.309 2.327.837.726.694.949 1.569.949 2.606V24h-1.898zm8.707-8.107c-1.884 0-2.17 1.477-2.17 3.182 0 1.705.286 3.202 2.17 3.202 1.886 0 2.15-1.497 2.15-3.202 0-1.705-.264-3.182-2.15-3.182zm2.192 7.994v-1.024c-.778.872-1.617 1.137-2.744 1.137-1.045 0-1.967-.322-2.54-.852-1.044-.966-1.167-2.615-1.167-4.073 0-1.458.123-3.087 1.166-4.054.574-.53 1.476-.85 2.52-.85 1.107 0 1.967.245 2.724 1.078V10.4h2.09v13.487h-2.049z" fill="#1A1919" fill-rule="nonzero"/></g></svg>